# xmcd
#
# Track frame offsets: 
#        150
#        14804
#        28689
#        45382
#        73973
#        124706
#        139918
#        169342
#        188327
#        206319
#        222065
#        246142
#        268379
#        281739
#        310657
#
# Disc length: 4396 seconds
#
# Revision: 0
# Processed by: cddbd v1.5.2PL0 Copyright (c) Steve Scherf et al.
# Submitted via: ExactAudioCopy v1.1
#
DISCID=e2112a0f
DTITLE=Little Milton - Waiting For Little Milton - Blues'N Soul
DYEAR=1973
DGENRE=Blues
TTITLE0=It's Amazing
TTITLE1=Who Can Handle Me Is You
TTITLE2=Woman, You Don't Have To Be So Cold
TTITLE3=The Thrill Is Gone
TTITLE4=Monologue - That's How Strong My Love Is
TTITLE5=What It Is
TTITLE6=Little Bluebird
TTITLE7=Woman Across The River
TTITLE8=Behind Closed Doors
TTITLE9=Sweet Woman Of Mine
TTITLE10=Worried Dreamer
TTITLE11=How Could You Do It To Me
TTITLE12=You're No Good
TTITLE13=Tain't Nobody's Biz-Ness If I Do
TTITLE14=Hard Luck Blues (1974)
EXTD=
EXTT0=
EXTT1=
EXTT2=
EXTT3=
EXTT4=
EXTT5=
EXTT6=
EXTT7=
EXTT8=
EXTT9=
EXTT10=
EXTT11=
EXTT12=
EXTT13=
EXTT14=
PLAYORDER=
